<svg xmlns="http://www.w3.org/2000/svg" viewBox="0 0 200 200" fill="none" color="currentColor">
  <style>
    .ship-frame,.ship-detail,.ship-hardpoint{fill:none;stroke:currentColor;stroke-linecap:round;stroke-linejoin:round;vector-effect:non-scaling-stroke}
    .ship-frame{stroke-width:1}
    .ship-detail{stroke-width:.75;opacity:.9}
    .ship-hardpoint{stroke-width:.85;opacity:.82;transition:stroke-width .16s ease,opacity .16s ease}
    .ship-hardpoint:hover{stroke-width:1.4;opacity:1}
  </style>
  <path class="ship-frame" d="M98 18L110 28L112 168L102 182H94L86 168L88 28Z"/>
  <path class="ship-detail" d="M112 24L138 32L134 48L112 46"/>
  <rect class="ship-detail" x="58" y="46" width="24" height="24" rx="2"/>
  <rect class="ship-detail" x="58" y="76" width="24" height="24" rx="2"/>
  <rect class="ship-detail" x="58" y="106" width="24" height="24" rx="2"/>
  <rect class="ship-detail" x="58" y="136" width="24" height="24" rx="2"/>
  <rect class="ship-detail" x="118" y="46" width="24" height="24" rx="2"/>
  <rect class="ship-detail" x="118" y="76" width="24" height="24" rx="2"/>
  <rect class="ship-detail" x="118" y="106" width="24" height="24" rx="2"/>
  <rect class="ship-detail" x="118" y="136" width="24" height="24" rx="2"/>
  <path class="ship-detail" d="M100 18V182"/>
  <circle class="ship-hardpoint" cx="100" cy="54" r="4" data-hardpoint-id="turret-fore" data-hardpoint-type="turret"/>
  <circle class="ship-hardpoint" cx="100" cy="98" r="4" data-hardpoint-id="turret-mid" data-hardpoint-type="turret"/>
  <circle class="ship-hardpoint" cx="100" cy="144" r="4" data-hardpoint-id="turret-aft" data-hardpoint-type="turret"/>
</svg>
