<svg xmlns="http://www.w3.org/2000/svg" viewBox="0 0 200 200" fill="none" color="currentColor">
  <style>
    .ship-frame,.ship-detail,.ship-hardpoint{fill:none;stroke:currentColor;stroke-linecap:round;stroke-linejoin:round;vector-effect:non-scaling-stroke}
    .ship-frame{stroke-width:1}
    .ship-detail{stroke-width:.75;opacity:.9}
    .ship-hardpoint{stroke-width:.85;opacity:.82;transition:stroke-width .16s ease,opacity .16s ease}
    .ship-hardpoint:hover{stroke-width:1.4;opacity:1}
  </style>
  <path class="ship-frame" d="M100 22L116 32L122 54L118 86L128 120L122 154L108 176H92L78 154L72 120L82 88L78 54L84 32Z"/>
  <path class="ship-detail" d="M100 22V176"/>
  <path class="ship-detail" d="M82 56L52 64L46 86L56 102L80 94"/>
  <path class="ship-detail" d="M118 56L148 64L154 86L144 102L120 94"/>
  <path class="ship-detail" d="M88 118H112"/>
  <circle class="ship-hardpoint" cx="52" cy="82" r="4" data-hardpoint-id="mining-arm-left" data-hardpoint-type="mining-arm"/>
  <circle class="ship-hardpoint" cx="148" cy="82" r="4" data-hardpoint-id="mining-arm-right" data-hardpoint-type="mining-arm"/>
  <circle class="ship-hardpoint" cx="100" cy="44" r="4" data-hardpoint-id="scanner-top" data-hardpoint-type="utility"/>
</svg>
